<svg version="1.2" xmlns="http://www.w3.org/2000/svg" viewBox="0 0 1540 1661" width="1540" height="1661">
	<style>
		.s0 { fill: #3c2cda } 
	</style>
	<path class="s0" d="m364.48 1481.72c-6.26 49.9-31.28 93.62-72.97 128.97-79.22 66.64-195.99 66.64-254.33-2.03-29.25-33.32-41.77-79.07-35.51-126.94l183.48-1300.7c6.25-47.86 31.28-91.59 68.82-126.94 79.23-70.78 198.1-70.78 258.56-2.11 29.17 35.35 41.68 79.07 35.43 129.05z"/>
	<path class="s0" d="m1354.83 1481.72c-6.25 49.9-31.28 93.62-72.96 128.97-79.23 66.64-195.99 66.64-254.34-2.03-29.17-33.32-41.68-79.07-35.42-126.94l183.47-1300.7c6.26-47.86 31.21-91.59 68.75-126.94 79.22-70.78 198.1-70.78 258.55-2.11 29.18 35.35 41.69 79.07 35.43 129.05z"/>
	<path class="s0" d="m839.83 649.29c50.05 0 91.74 18.69 120.99 54.04 56.31 68.68 39.57 187.33-37.54 253.97-39.65 33.24-85.48 52.01-135.53 52.01h-540.04c-47.94 0-89.62-16.66-120.91-49.98-60.45-68.67-43.79-187.32 35.43-258.03 39.66-35.43 87.6-54.12 135.54-54.12h542.06z"/>
</svg>