<svg version="1.2" xmlns="http://www.w3.org/2000/svg" viewBox="0 0 1551 205" width="1551" height="205">
	<style>
		.s0 { fill: #3c2cda } 
	</style>
	<path class="s0" d="m44.84 182.94c-0.77 6.14-3.85 11.52-8.98 15.87-9.75 8.2-24.12 8.2-31.3-0.25-3.6-4.1-5.14-9.73-4.37-15.62l22.58-160.05c0.77-5.89 3.85-11.27 8.47-15.62 9.75-8.71 24.38-8.71 31.82-0.26 3.59 4.35 5.13 9.73 4.36 15.88z"/>
	<path class="s0" d="m166.72 182.94c-0.77 6.14-3.85 11.52-8.98 15.87-9.75 8.2-24.12 8.2-31.3-0.25-3.59-4.1-5.13-9.73-4.36-15.62l22.58-160.05c0.77-5.89 3.84-11.27 8.46-15.62 9.75-8.71 24.38-8.71 31.82-0.26 3.59 4.35 5.13 9.73 4.36 15.88z"/>
	<path class="s0" d="m103.34 80.51c6.16 0 11.29 2.3 14.89 6.65 6.93 8.45 4.87 23.05-4.62 31.25-4.88 4.09-10.52 6.4-16.68 6.4h-66.46c-5.9 0-11.03-2.05-14.88-6.15-7.44-8.45-5.39-23.05 4.36-31.75 4.88-4.36 10.78-6.66 16.68-6.66h66.71z"/>
	<path class="s0" d="m319.65 203.68h-104.17c-6.16 0-11.29-2.31-14.89-6.4-3.59-4.1-5.13-9.73-4.36-15.62l22.07-157.24c0.77-5.89 3.85-11.52 8.47-15.62 4.87-4.35 10.52-6.66 16.68-6.66h104.17c5.91 0 10.78 2.31 14.37 6.41 3.6 4.09 4.88 9.47 4.11 15.36-0.77 5.89-3.85 11.27-8.73 15.37-4.62 3.84-10.26 6.14-15.9 6.14h-81.6l-5.13 36.37h72.36c5.9 0 10.77 2.04 14.37 6.14 3.59 4.1 5.13 9.48 4.1 15.37-0.77 5.89-3.85 11.26-8.72 15.36-4.62 3.84-10.27 5.89-15.91 5.89h-72.36l-5.13 36.62h81.59c5.9 0 10.78 2.3 14.37 6.4 3.59 4.1 4.88 9.48 4.11 15.37-0.77 5.89-3.85 11.26-8.73 15.36-3.85 3.33-9.49 5.38-15.14 5.38z"/>
	<path class="s0" d="m516.46 204.96c-7.18 0-13.09-3.33-16.42-9.22l-38.75-58.9-54.91 59.41c-6.93 7.17-13.85 8.71-18.47 8.71-5.65 0-10.52-2.3-14.12-6.4-3.59-4.1-4.87-9.22-4.1-15.11 0.77-5.12 2.82-9.73 6.41-13.57l64.41-67.35-44.65-66.58c-2.56-4.36-3.33-8.71-2.82-13.83 0.77-6.15 3.85-11.52 8.47-15.62 7.44-6.4 18.21-8.2 26.17-3.84 3.08 1.53 5.39 3.84 6.93 6.4l38.23 58.9 54.91-59.41c7.44-9.22 24.38-11.01 32.33-2.05 3.85 4.1 5.13 9.47 4.36 15.36-0.77 4.61-2.56 8.97-5.9 12.55l-64.66 67.86 45.16 67.1c2.57 3.33 3.59 7.93 2.82 13.31-0.77 5.89-3.85 11.27-8.46 15.62-4.88 4.61-10.52 6.66-16.94 6.66z"/>
	<path class="s0" d="m720.2 204.96c-4.36 0-8.47-1.28-11.81-3.58-3.33-2.57-5.64-5.64-6.92-9.74l-9.5-34.31h-74.41l-18.99 34.06c-2.56 4.35-5.9 7.68-9.75 9.99-10.01 5.89-21.81 4.35-27.97-2.82-3.33-4.1-4.87-9.48-3.85-15.62 0.52-2.82 1.54-5.89 3.34-9.22l88.27-156.21c2.82-4.87 6.41-8.71 10.52-11.78 4.87-3.58 10.52-5.12 16.42-5.12h2.57c6.15 0 11.03 1.79 14.88 5.12 3.33 3.07 5.9 6.91 7.18 11.52l44.39 156.21q1.54 5 0.77 9.22c-0.77 5.89-3.84 11.27-8.21 15.62-4.62 4.61-10.52 6.66-16.93 6.66zm-78.78-89.88h38.75l-12.83-46.61z"/>
	<path class="s0" d="m922.14 204.96c-5.65 0-11.04-1.79-15.14-5.38q-6.16-5.37-7.7-13.82l-17.71-100.39-45.93 100.64c-2.31 5.38-6.41 9.99-11.54 13.57-10.27 7.17-23.35 6.92-31.31 0.26-3.85-3.33-6.41-7.68-7.7-13.57l-28.99-156.47c-0.51-3.07-0.51-5.63-0.26-7.68 0.52-5.63 3.34-11.27 8.21-15.62 8.47-7.43 22.33-8.45 30.03-1.28q4.61 4.61 6.15 11.52l18.22 110.37 49.27-109.86c2.05-4.86 5.9-9.22 10.52-12.54 9.49-6.41 21.55-6.15 29.25 0 3.85 3.07 6.41 7.68 7.19 12.54l18.47 109.86 49.27-110.37c2.05-4.86 5.38-8.7 9.49-11.78 9.49-7.17 23.09-6.14 29.51 1.28q5.39 6.53 3.85 16.14c-0.26 1.53-1.03 3.84-2.06 6.65l-73.13 156.47c-3.07 6.14-6.92 10.5-11.8 13.83-5.13 4.09-10.52 5.63-16.16 5.63z"/>
	<path class="s0" d="m1152.82 204.96c-4.36 0-8.47-1.28-11.81-3.58-3.33-2.57-5.64-5.64-6.92-9.74l-9.5-34.31h-74.41l-18.99 34.06c-2.56 4.35-5.9 7.68-9.75 9.99-10.01 5.89-21.81 4.35-27.97-2.82-3.33-4.1-4.87-9.48-3.85-15.62 0.52-2.82 1.54-5.89 3.34-9.22l88.27-156.21c2.82-4.87 6.41-8.71 10.52-11.78 4.87-3.58 10.52-5.12 16.42-5.12h2.57c6.15 0 11.03 1.79 14.88 5.12 3.33 3.07 5.9 6.91 7.18 11.52l44.39 156.21q1.55 5 0.78 9.22c-0.78 5.89-3.86 11.27-8.22 15.62-4.87 4.61-10.77 6.66-16.93 6.66zm-79.03-89.88h38.74l-12.83-46.61z"/>
	<path class="s0" d="m1333.72 204.96c-7.18 0-13.09-3.33-16.43-9.22l-65.43-103.2 52.09-0.51 52.35 77.59c1.54 2.05 3.85 6.66 2.82 13.32-0.77 5.89-3.85 11.26-8.21 15.62-4.88 4.35-10.78 6.4-17.19 6.4z"/>
	<path class="s0" d="m1214.39 204.96c-6.15 0-11.28-2.3-14.88-6.4-3.58-4.1-5.12-9.73-4.09-15.62l22.32-158.52c0.76-5.89 3.84-11.52 8.47-15.62 4.87-4.35 10.52-6.66 16.67-6.66h60.56c25.92 0 45.16 5.64 57.22 16.91 12.57 11.78 17.7 27.14 14.88 46.09-2.31 16.13-15.14 68.37-85.44 68.37h-43.36l-6.94 49.68c-0.77 6.15-3.85 11.53-8.98 15.88-4.88 3.84-10.51 5.89-16.43 5.89zm38.5-114.98h36.43c12.83 0 23.1-2.3 30.54-6.91 6.42-3.84 9.75-8.97 10.77-16.14 1.03-6.91-0.51-11.78-4.87-15.36-3.59-2.82-11.8-6.15-31.56-6.15h-35.15z"/>
	<path class="s0" d="m1503.58 203.68h-104.18c-6.16 0-11.28-2.31-14.88-6.4-3.59-4.1-5.13-9.73-4.11-15.62l22.07-157.24c0.77-5.89 3.85-11.52 8.47-15.62 4.87-4.35 10.77-6.66 16.94-6.66h104.17c5.9 0 10.78 2.31 14.37 6.41 3.6 4.09 4.87 9.47 4.11 15.36-0.78 5.89-3.85 11.27-8.73 15.37-4.61 3.84-10.26 6.14-15.91 6.14h-81.84l-5.14 36.37h72.36c5.9 0 10.78 2.04 14.37 6.14 3.59 4.1 5.14 9.48 4.11 15.37-0.78 5.89-3.86 11.26-8.73 15.36-4.62 3.84-10.26 5.89-15.91 5.89h-72.36l-5.14 36.62h81.86c5.9 0 10.78 2.3 14.37 6.4 3.59 4.1 4.88 9.48 4.11 15.37-0.77 5.89-3.85 11.26-8.72 15.36-4.37 3.33-9.76 5.38-15.66 5.38z"/>
</svg>